# xmcd CD database file
#
# Track frame offsets:
#	150
#	14482
#	30085
#	47035
#	71640
#	89035
#	108367
#	121725
#	142545
#	168162
#	186922
#	203392
#	236427
#	262052
#
# Disc length: 3664 seconds
#
# Revision: 0
# Processed by: cddbd v1.5.1PL0 Copyright (c) Steve Scherf et al.
# Submitted via: CDex 1.51
#
DISCID=af0e4e0e
DTITLE=The Veterinary Street Jazz Band - IAA '97 Limited Edition
DYEAR=1997
DGENRE=Jazz
TTITLE0=Ain't she sweet
TTITLE1=Cakewalking Babies
TTITLE2=Harlem Bound
TTITLE3=Panama Rag
TTITLE4=Low down Papa
TTITLE5=Mississippi roll on
TTITLE6=Deep Henderson
TTITLE7=Glory of Love
TTITLE8=New Orleans Shuffle
TTITLE9=I'm confessing
TTITLE10=Stampede
TTITLE11=Vo-Do-Do De-O Blues
TTITLE12=Westend Blues
TTITLE13=St. Louis Shuffle
EXTD=YEAR: 1997
EXTT0=
EXTT1=
EXTT2=
EXTT3=
EXTT4=
EXTT5=
EXTT6=
EXTT7=
EXTT8=
EXTT9=
EXTT10=
EXTT11=
EXTT12=
EXTT13=
PLAYORDER=
